<mxfile host="app.diagrams.net" modified="2022-10-19T04:07:08.948Z" agent="5.0 (Windows NT 10.0; Win64; x64) AppleWebKit/537.36 (KHTML, like Gecko) Chrome/106.0.0.0 Safari/537.36 Edg/106.0.1370.47" etag="_ru9FjjiFOynw_DU2SSG" version="20.2.5" type="github">
  <diagram id="UjGf2yrYEU9PU5WEPxbT" name="Page-1">
    <mxGraphModel dx="782" dy="507" grid="1" gridSize="10" guides="1" tooltips="1" connect="1" arrows="1" fold="1" page="1" pageScale="1" pageWidth="850" pageHeight="1100" math="0" shadow="0">
      <root>
        <mxCell id="0" />
        <mxCell id="1" parent="0" />
        <mxCell id="wQ6QyCLV2L72o9YKowR4-1" value="" style="swimlane;startSize=0;" vertex="1" parent="1">
          <mxGeometry x="40" y="250" width="100" height="50" as="geometry" />
        </mxCell>
        <mxCell id="wQ6QyCLV2L72o9YKowR4-4" value="" style="dashed=0;aspect=fixed;verticalLabelPosition=bottom;verticalAlign=top;align=center;shape=mxgraph.gmdl.gps;strokeColor=#737373;fillColor=#737373;shadow=0;strokeWidth=2;sketch=0;" vertex="1" parent="1">
          <mxGeometry x="211" y="290" width="20" height="20" as="geometry" />
        </mxCell>
        <mxCell id="wQ6QyCLV2L72o9YKowR4-5" value="" style="swimlane;startSize=0;" vertex="1" parent="1">
          <mxGeometry x="40" y="360" width="100" height="50" as="geometry" />
        </mxCell>
        <mxCell id="wQ6QyCLV2L72o9YKowR4-6" value="" style="sketch=0;outlineConnect=0;fontColor=#232F3E;gradientColor=none;fillColor=#3F8624;strokeColor=none;dashed=0;verticalLabelPosition=bottom;verticalAlign=top;align=center;html=1;fontSize=12;fontStyle=0;aspect=fixed;pointerEvents=1;shape=mxgraph.aws4.iot_thing_vibration_sensor;" vertex="1" parent="1">
          <mxGeometry x="202" y="230" width="38" height="38" as="geometry" />
        </mxCell>
        <mxCell id="wQ6QyCLV2L72o9YKowR4-7" value="" style="sketch=0;outlineConnect=0;fontColor=#232F3E;gradientColor=none;fillColor=#3F8624;strokeColor=none;dashed=0;verticalLabelPosition=bottom;verticalAlign=top;align=center;html=1;fontSize=12;fontStyle=0;aspect=fixed;pointerEvents=1;shape=mxgraph.aws4.iot_over_the_air_update;" vertex="1" parent="1">
          <mxGeometry x="207" y="340" width="28" height="22.62" as="geometry" />
        </mxCell>
        <mxCell id="wQ6QyCLV2L72o9YKowR4-8" value="" style="strokeWidth=1;html=1;shadow=0;dashed=0;shape=mxgraph.android.rect;rounded=1;fillColor=#ccf2ff;strokeColor=#88c5f5;" vertex="1" parent="1">
          <mxGeometry x="188" y="376" width="67" height="18" as="geometry" />
        </mxCell>
        <mxCell id="wQ6QyCLV2L72o9YKowR4-9" value="Item" style="strokeWidth=1;html=1;shadow=0;dashed=0;shape=mxgraph.android.spinner2;fontStyle=0;fontColor=#666666;align=center;verticalAlign=middle;strokeColor=#cccccc;fillColor=#cccccc;" vertex="1" parent="wQ6QyCLV2L72o9YKowR4-8">
          <mxGeometry x="1.7179487179487178" y="2.571428571428571" width="62.99145299145299" height="12.857142857142856" as="geometry" />
        </mxCell>
        <mxCell id="wQ6QyCLV2L72o9YKowR4-10" value="" style="sketch=0;outlineConnect=0;fontColor=#232F3E;gradientColor=none;fillColor=#3F8624;strokeColor=none;dashed=0;verticalLabelPosition=bottom;verticalAlign=top;align=center;html=1;fontSize=12;fontStyle=0;aspect=fixed;pointerEvents=1;shape=mxgraph.aws4.iot_thing_temperature_humidity_sensor;" vertex="1" parent="1">
          <mxGeometry x="207.5" y="410" width="28" height="28" as="geometry" />
        </mxCell>
        <mxCell id="wQ6QyCLV2L72o9YKowR4-11" value="" style="dashed=0;aspect=fixed;verticalLabelPosition=bottom;verticalAlign=top;align=center;shape=mxgraph.gmdl.gps;strokeColor=#737373;fillColor=#737373;shadow=0;strokeWidth=2;sketch=0;" vertex="1" parent="1">
          <mxGeometry x="215" y="450" width="20" height="20" as="geometry" />
        </mxCell>
        <mxCell id="wQ6QyCLV2L72o9YKowR4-12" value="" style="sketch=0;outlineConnect=0;fontColor=#232F3E;gradientColor=none;fillColor=#3F8624;strokeColor=none;dashed=0;verticalLabelPosition=bottom;verticalAlign=top;align=center;html=1;fontSize=12;fontStyle=0;aspect=fixed;pointerEvents=1;shape=mxgraph.aws4.iot_thing_vibration_sensor;" vertex="1" parent="1">
          <mxGeometry x="211" y="480" width="29" height="29" as="geometry" />
        </mxCell>
        <mxCell id="wQ6QyCLV2L72o9YKowR4-13" value="" style="endArrow=none;html=1;rounded=0;" edge="1" parent="1">
          <mxGeometry width="50" height="50" relative="1" as="geometry">
            <mxPoint x="150" y="260" as="sourcePoint" />
            <mxPoint x="200" y="250" as="targetPoint" />
          </mxGeometry>
        </mxCell>
        <mxCell id="wQ6QyCLV2L72o9YKowR4-14" value="" style="endArrow=none;html=1;rounded=0;" edge="1" parent="1">
          <mxGeometry width="50" height="50" relative="1" as="geometry">
            <mxPoint x="150" y="290" as="sourcePoint" />
            <mxPoint x="200" y="300" as="targetPoint" />
          </mxGeometry>
        </mxCell>
        <mxCell id="wQ6QyCLV2L72o9YKowR4-15" value="" style="endArrow=none;html=1;rounded=0;" edge="1" parent="1">
          <mxGeometry width="50" height="50" relative="1" as="geometry">
            <mxPoint x="150" y="376.31" as="sourcePoint" />
            <mxPoint x="200" y="350" as="targetPoint" />
          </mxGeometry>
        </mxCell>
        <mxCell id="wQ6QyCLV2L72o9YKowR4-16" value="" style="endArrow=none;html=1;rounded=0;" edge="1" parent="1">
          <mxGeometry width="50" height="50" relative="1" as="geometry">
            <mxPoint x="150" y="394" as="sourcePoint" />
            <mxPoint x="180" y="390" as="targetPoint" />
          </mxGeometry>
        </mxCell>
        <mxCell id="wQ6QyCLV2L72o9YKowR4-17" value="" style="endArrow=none;html=1;rounded=0;entryX=1.1;entryY=0.9;entryDx=0;entryDy=0;entryPerimeter=0;" edge="1" parent="1" source="wQ6QyCLV2L72o9YKowR4-10" target="wQ6QyCLV2L72o9YKowR4-5">
          <mxGeometry width="50" height="50" relative="1" as="geometry">
            <mxPoint x="157" y="460" as="sourcePoint" />
            <mxPoint x="180" y="410" as="targetPoint" />
            <Array as="points" />
          </mxGeometry>
        </mxCell>
        <mxCell id="wQ6QyCLV2L72o9YKowR4-18" value="" style="endArrow=none;html=1;rounded=0;entryX=1.007;entryY=1.193;entryDx=0;entryDy=0;entryPerimeter=0;" edge="1" parent="1" source="wQ6QyCLV2L72o9YKowR4-11" target="wQ6QyCLV2L72o9YKowR4-5">
          <mxGeometry width="50" height="50" relative="1" as="geometry">
            <mxPoint x="110" y="488" as="sourcePoint" />
            <mxPoint x="160" y="438" as="targetPoint" />
          </mxGeometry>
        </mxCell>
        <mxCell id="wQ6QyCLV2L72o9YKowR4-19" value="" style="endArrow=none;html=1;rounded=0;entryX=0.913;entryY=1.14;entryDx=0;entryDy=0;entryPerimeter=0;" edge="1" parent="1" source="wQ6QyCLV2L72o9YKowR4-12" target="wQ6QyCLV2L72o9YKowR4-5">
          <mxGeometry width="50" height="50" relative="1" as="geometry">
            <mxPoint x="80" y="509" as="sourcePoint" />
            <mxPoint x="130" y="459" as="targetPoint" />
          </mxGeometry>
        </mxCell>
        <mxCell id="wQ6QyCLV2L72o9YKowR4-21" value="" style="aspect=fixed;perimeter=ellipsePerimeter;html=1;align=center;shadow=0;dashed=0;fontColor=#4277BB;labelBackgroundColor=#ffffff;fontSize=12;spacingTop=3;image;image=img/lib/ibm/management/alert_notification.svg;" vertex="1" parent="1">
          <mxGeometry x="300" y="380" width="40" height="40" as="geometry" />
        </mxCell>
        <mxCell id="wQ6QyCLV2L72o9YKowR4-22" value="" style="aspect=fixed;perimeter=ellipsePerimeter;html=1;align=center;shadow=0;dashed=0;fontColor=#4277BB;labelBackgroundColor=#ffffff;fontSize=12;spacingTop=3;image;image=img/lib/ibm/management/alert_notification.svg;" vertex="1" parent="1">
          <mxGeometry x="290" y="229" width="40" height="40" as="geometry" />
        </mxCell>
        <mxCell id="wQ6QyCLV2L72o9YKowR4-23" value="" style="endArrow=none;html=1;rounded=0;" edge="1" parent="1" source="wQ6QyCLV2L72o9YKowR4-6">
          <mxGeometry width="50" height="50" relative="1" as="geometry">
            <mxPoint x="380" y="320" as="sourcePoint" />
            <mxPoint x="290" y="249" as="targetPoint" />
          </mxGeometry>
        </mxCell>
        <mxCell id="wQ6QyCLV2L72o9YKowR4-24" value="" style="endArrow=none;html=1;rounded=0;exitX=1.05;exitY=0.517;exitDx=0;exitDy=0;exitPerimeter=0;entryX=0.25;entryY=1;entryDx=0;entryDy=0;" edge="1" parent="1" source="wQ6QyCLV2L72o9YKowR4-4" target="wQ6QyCLV2L72o9YKowR4-22">
          <mxGeometry width="50" height="50" relative="1" as="geometry">
            <mxPoint x="380" y="320" as="sourcePoint" />
            <mxPoint x="430" y="270" as="targetPoint" />
          </mxGeometry>
        </mxCell>
        <mxCell id="wQ6QyCLV2L72o9YKowR4-25" value="" style="endArrow=none;html=1;rounded=0;entryX=0;entryY=0;entryDx=0;entryDy=0;" edge="1" parent="1" source="wQ6QyCLV2L72o9YKowR4-7" target="wQ6QyCLV2L72o9YKowR4-21">
          <mxGeometry width="50" height="50" relative="1" as="geometry">
            <mxPoint x="380" y="320" as="sourcePoint" />
            <mxPoint x="430" y="270" as="targetPoint" />
          </mxGeometry>
        </mxCell>
        <mxCell id="wQ6QyCLV2L72o9YKowR4-26" value="" style="endArrow=none;html=1;rounded=0;exitX=1;exitY=0.5;exitDx=0;exitDy=0;entryX=0;entryY=0.5;entryDx=0;entryDy=0;" edge="1" parent="1" source="wQ6QyCLV2L72o9YKowR4-8" target="wQ6QyCLV2L72o9YKowR4-21">
          <mxGeometry width="50" height="50" relative="1" as="geometry">
            <mxPoint x="380" y="320" as="sourcePoint" />
            <mxPoint x="430" y="270" as="targetPoint" />
          </mxGeometry>
        </mxCell>
        <mxCell id="wQ6QyCLV2L72o9YKowR4-27" value="" style="endArrow=none;html=1;rounded=0;entryX=0.25;entryY=1;entryDx=0;entryDy=0;" edge="1" parent="1" source="wQ6QyCLV2L72o9YKowR4-10" target="wQ6QyCLV2L72o9YKowR4-21">
          <mxGeometry width="50" height="50" relative="1" as="geometry">
            <mxPoint x="380" y="320" as="sourcePoint" />
            <mxPoint x="430" y="270" as="targetPoint" />
          </mxGeometry>
        </mxCell>
        <mxCell id="wQ6QyCLV2L72o9YKowR4-28" value="" style="endArrow=none;html=1;rounded=0;exitX=1.017;exitY=0.317;exitDx=0;exitDy=0;exitPerimeter=0;entryX=0.5;entryY=1;entryDx=0;entryDy=0;" edge="1" parent="1" source="wQ6QyCLV2L72o9YKowR4-11" target="wQ6QyCLV2L72o9YKowR4-21">
          <mxGeometry width="50" height="50" relative="1" as="geometry">
            <mxPoint x="380" y="320" as="sourcePoint" />
            <mxPoint x="430" y="270" as="targetPoint" />
          </mxGeometry>
        </mxCell>
        <mxCell id="wQ6QyCLV2L72o9YKowR4-29" value="" style="endArrow=none;html=1;rounded=0;entryX=1;entryY=1;entryDx=0;entryDy=0;" edge="1" parent="1" source="wQ6QyCLV2L72o9YKowR4-12" target="wQ6QyCLV2L72o9YKowR4-21">
          <mxGeometry width="50" height="50" relative="1" as="geometry">
            <mxPoint x="380" y="320" as="sourcePoint" />
            <mxPoint x="430" y="270" as="targetPoint" />
          </mxGeometry>
        </mxCell>
        <mxCell id="wQ6QyCLV2L72o9YKowR4-30" value="" style="aspect=fixed;perimeter=ellipsePerimeter;html=1;align=center;shadow=0;dashed=0;spacingTop=3;image;image=img/lib/active_directory/router.svg;" vertex="1" parent="1">
          <mxGeometry x="430" y="310" width="50" height="38" as="geometry" />
        </mxCell>
        <mxCell id="wQ6QyCLV2L72o9YKowR4-31" value="" style="endArrow=none;html=1;rounded=0;entryX=1;entryY=0.75;entryDx=0;entryDy=0;exitX=0.25;exitY=0;exitDx=0;exitDy=0;" edge="1" parent="1" source="wQ6QyCLV2L72o9YKowR4-33" target="wQ6QyCLV2L72o9YKowR4-22">
          <mxGeometry width="50" height="50" relative="1" as="geometry">
            <mxPoint x="380" y="310" as="sourcePoint" />
            <mxPoint x="430" y="270" as="targetPoint" />
          </mxGeometry>
        </mxCell>
        <mxCell id="wQ6QyCLV2L72o9YKowR4-32" value="" style="endArrow=none;html=1;rounded=0;exitX=1;exitY=0.25;exitDx=0;exitDy=0;entryX=0.5;entryY=1;entryDx=0;entryDy=0;" edge="1" parent="1" source="wQ6QyCLV2L72o9YKowR4-21" target="wQ6QyCLV2L72o9YKowR4-33">
          <mxGeometry width="50" height="50" relative="1" as="geometry">
            <mxPoint x="380" y="320" as="sourcePoint" />
            <mxPoint x="400" y="360" as="targetPoint" />
          </mxGeometry>
        </mxCell>
        <mxCell id="wQ6QyCLV2L72o9YKowR4-33" value="" style="aspect=fixed;perimeter=ellipsePerimeter;html=1;align=center;shadow=0;dashed=0;spacingTop=3;image;image=img/lib/active_directory/wiring_hub.svg;" vertex="1" parent="1">
          <mxGeometry x="350" y="310" width="50" height="34" as="geometry" />
        </mxCell>
        <mxCell id="wQ6QyCLV2L72o9YKowR4-35" value="" style="endArrow=none;html=1;rounded=0;exitX=1;exitY=0.5;exitDx=0;exitDy=0;entryX=0;entryY=0.5;entryDx=0;entryDy=0;" edge="1" parent="1" source="wQ6QyCLV2L72o9YKowR4-33" target="wQ6QyCLV2L72o9YKowR4-30">
          <mxGeometry width="50" height="50" relative="1" as="geometry">
            <mxPoint x="380" y="320" as="sourcePoint" />
            <mxPoint x="430" y="270" as="targetPoint" />
          </mxGeometry>
        </mxCell>
        <mxCell id="wQ6QyCLV2L72o9YKowR4-36" value="" style="aspect=fixed;perimeter=ellipsePerimeter;html=1;align=center;shadow=0;dashed=0;spacingTop=3;image;image=img/lib/active_directory/router.svg;" vertex="1" parent="1">
          <mxGeometry x="520" y="310" width="50" height="38" as="geometry" />
        </mxCell>
        <mxCell id="wQ6QyCLV2L72o9YKowR4-37" value="" style="endArrow=none;html=1;rounded=0;exitX=1;exitY=0.5;exitDx=0;exitDy=0;entryX=0;entryY=0.5;entryDx=0;entryDy=0;" edge="1" parent="1" source="wQ6QyCLV2L72o9YKowR4-30" target="wQ6QyCLV2L72o9YKowR4-36">
          <mxGeometry width="50" height="50" relative="1" as="geometry">
            <mxPoint x="380" y="320" as="sourcePoint" />
            <mxPoint x="430" y="270" as="targetPoint" />
          </mxGeometry>
        </mxCell>
        <mxCell id="wQ6QyCLV2L72o9YKowR4-40" value="Cloud" style="ellipse;shape=cloud;whiteSpace=wrap;html=1;align=center;" vertex="1" parent="1">
          <mxGeometry x="614" y="280" width="70" height="40" as="geometry" />
        </mxCell>
        <mxCell id="wQ6QyCLV2L72o9YKowR4-41" value="" style="sketch=0;aspect=fixed;pointerEvents=1;shadow=0;dashed=0;html=1;strokeColor=none;labelPosition=center;verticalLabelPosition=bottom;verticalAlign=top;align=center;fillColor=#00188D;shape=mxgraph.mscae.enterprise.database_server" vertex="1" parent="1">
          <mxGeometry x="640" y="362.62" width="38" height="50" as="geometry" />
        </mxCell>
        <mxCell id="wQ6QyCLV2L72o9YKowR4-43" value="" style="shape=image;html=1;verticalAlign=top;verticalLabelPosition=bottom;labelBackgroundColor=#ffffff;imageAspect=0;aspect=fixed;image=https://cdn3.iconfinder.com/data/icons/user-interface-169/32/plus-128.png" vertex="1" parent="1">
          <mxGeometry x="636" y="330" width="26" height="26" as="geometry" />
        </mxCell>
        <mxCell id="wQ6QyCLV2L72o9YKowR4-44" value="" style="endArrow=none;html=1;rounded=0;exitX=1;exitY=0.5;exitDx=0;exitDy=0;entryX=0;entryY=0.5;entryDx=0;entryDy=0;" edge="1" parent="1" source="wQ6QyCLV2L72o9YKowR4-36" target="wQ6QyCLV2L72o9YKowR4-43">
          <mxGeometry width="50" height="50" relative="1" as="geometry">
            <mxPoint x="380" y="320" as="sourcePoint" />
            <mxPoint x="430" y="270" as="targetPoint" />
          </mxGeometry>
        </mxCell>
      </root>
    </mxGraphModel>
  </diagram>
</mxfile>
